<?xml version="1.0" encoding="utf-8"?><svg width="175" height="163" viewBox="0 0 175 163" xmlns="http://www.w3.org/2000/svg" xmlns:xlink="http://www.w3.org/1999/xlink"><svg width="36" height="36" viewBox="-10 -10 36 36" id="menu-events" y="31"><path fill-rule="evenodd" fill="#fff" d="M15 16H1c-.553 0-1-.447-1-1V2c0-.553.447-1 1-1h1v1c0 .553.447 1 1 1h2c.552 0 1-.447 1-1V1h4v1c0 .553.447 1 1 1h2c.552 0 1-.447 1-1V1h1c.552 0 1 .447 1 1v13c0 .553-.448 1-1 1zM5 7H3v2h2V7zm0 4H3v2h2v-2zm4-4H7v2h2V7zm0 4H7v2h2v-2zm4-4h-2v2h2V7zm0 4h-2v2h2v-2zM11 0h2v2h-2V0zM3 0h2v2H3V0z"/></svg><svg width="36" height="36" viewBox="-10 -10 36 36" id="menu-home" x="72" y="67"><path fill-rule="evenodd" fill="#fff" d="M16 8H0V7l8-7 3 2.625V1h2v3.375L16 7v1zm-1 8h-5v-4H6v4H1V9h14v7z"/></svg><svg width="36" height="34" viewBox="-10 -10 36 34" id="menu-lib" x="36" y="31"><path fill-rule="evenodd" fill="#fff" d="M1 0h5c.552 0 1 .448 1 1 0 0 .13.917 1 1h7c.552 0 1 .432 1 .984V4H0V1c0-.552.448-1 1-1zm15 13c0 .552-.448 1-1 1H1c-.552 0-1-.448-1-1V5h16v8z"/></svg><svg width="36" height="36" viewBox="-10 -10 36 36" id="menu-news" x="75"><path fill-rule="evenodd" fill="#fff" d="M16 1c0-.553-.448-1-1-1H1C.448 0 0 .447 0 1v14c0 .553.448 1 1 1h14c.552 0 1-.447 1-1V1zm-14.335.508c0 .27-.22.492-.494.492-.27 0-.49-.22-.49-.492v-.002c0-.272.22-.492.49-.492.275 0 .495.22.495.492v.002zM13 13H3v-1h10v1zM3 10V6h4v4H3zm10 0H9V9h4v1zm0-3H9V6h4v1zm1.165-5h-11c-.275 0-.5-.223-.5-.5 0-.275.225-.5.5-.5h11c.278 0 .5.225.5.5 0 .277-.222.5-.5.5z"/></svg><svg width="34" height="34" viewBox="-10 -10 34 34" id="menu-recommended" x="111"><path fill-rule="evenodd" fill="#fff" d="M0 14h3V6H0v8zm14-8H9l2-4V0H9L6 5 4 6v8h7l1-1 1-2v-1l1-2V6c0 .07 0 0 0 0z"/></svg><svg width="36" height="36" viewBox="-10 -10 36 36" id="menu-search" y="67"><path fill-rule="evenodd" fill="#fff" d="M15.686 14.296c.396.397.406 1.03.023 1.416-.385.385-1.016.374-1.412-.023l-3.005-3.01c-.032-.034-.046-.075-.073-.11-1.175.892-2.624 1.442-4.214 1.442C3.136 14.012 0 10.875 0 7.006 0 3.136 3.137 0 7.006 0c3.87 0 7.006 3.137 7.006 7.006 0 1.587-.548 3.033-1.437 4.208.034.026.075.04.106.07l3.006 3.012zM6.99 1.994c-2.76 0-4.996 2.237-4.996 4.996 0 2.76 2.237 4.997 4.996 4.997 2.76 0 4.997-2.237 4.997-4.997S9.75 1.994 6.99 1.994z"/></svg><svg width="36" height="36" viewBox="-10 -10 36 36" id="menu-settings" x="36" y="67"><path fill-rule="evenodd" fill="#fff" d="M15.415 6.835L13.83 6.57c-.115-.47-.283-.92-.502-1.34l1.015-1.26c.215-.264.206-.647-.022-.904l-.63-.71c-.228-.255-.607-.31-.896-.127l-1.355.85c-.597-.416-1.273-.723-2-.902L9.173.585C9.118.248 8.826 0 8.484 0h-.95c-.343 0-.636.248-.69.585L6.577 2.18c-.602.146-1.167.384-1.682.698l-1.29-.92c-.277-.2-.66-.167-.9.074l-.672.672c-.242.242-.273.624-.074.902l.92 1.29c-.31.513-.545 1.074-.693 1.67l-1.602.27C.248 6.89 0 7.182 0 7.525v.95c0 .34.248.633.585.69l1.602.267c.12.49.297.96.53 1.395l-1.01 1.25c-.214.267-.205.65.022.906l.63.71c.228.256.607.31.896.127l1.375-.863c.583.398 1.24.69 1.947.864l.267 1.595c.054.337.347.585.69.585h.95c.342 0 .634-.248.69-.585l.265-1.594c.594-.144 1.15-.378 1.662-.686l1.343.96c.277.198.66.167.9-.076l.673-.67c.24-.243.274-.624.074-.903l-.957-1.34c.312-.513.55-1.076.695-1.675l1.585-.265c.338-.056.585-.348.585-.69v-.95c0-.342-.247-.634-.585-.69zM8.025 11c-1.656 0-3-1.344-3-3 0-1.657 1.344-3 3-3s3 1.343 3 3c0 1.656-1.344 3-3 3z"/></svg><svg width="30" height="32" viewBox="-10 -10 30 32" id="play" x="145"><path fill-rule="evenodd" fill="#52636a" d="M0 0l10 6-10 6V0z"/></svg><svg width="37" height="30" viewBox="-10 -10 37 30" id="scrobble" x="38"><path fill-rule="evenodd" fill="#52636a" d="M12.967 9.993C15.66 9.993 17 9.05 17 7.16c0-1.557-.85-2.546-2.554-2.973l-1.27-.28c-.72-.19-1.077-.592-1.077-1.205 0-.71.45-1.062 1.343-1.062.985 0 1.5.4 1.545 1.2l1.946-.21C16.804.88 15.677.007 13.578.007c-2.29 0-3.43.993-3.43 2.98 0 1.41.74 2.31 2.22 2.686l1.345.282c.896.235 1.345.663 1.345 1.276 0 .753-.697 1.134-2.09 1.134-1.697 0-2.82-.875-3.355-2.622L8.936 3.69C8.536 2.32 8.034 1.364 7.424.82 6.824.285 5.874.007 4.57.007c-1.212 0-2.275.473-3.19 1.418C.46 2.37 0 3.62 0 5.177c0 1.46.434 2.63 1.31 3.504.878.877 1.913 1.313 3.124 1.313 1.21 0 2.173-.305 2.89-.92l-.6-1.772c-.63.664-1.373.996-2.222.996-.715 0-1.332-.297-1.846-.89-.515-.587-.777-1.356-.777-2.3 0-1.18.28-2.04.84-2.582.564-.543 1.198-.813 1.915-.813.764 0 1.31.212 1.65.633.337.427.636 1.09.905 1.985l.608 2.055c.717 2.405 2.442 3.61 5.17 3.61"/></svg><svg width="34" height="32" viewBox="-10 -10 34 32" id="shuffle" x="111" y="34"><path fill-rule="evenodd" fill="#52636a" d="M0 2v2h2l1 1h1s1-.52 1-1.03V3s-1-.063-1-1c0-.354 0 0 0 0H0zm7 6v1c0 .193 0 0 0 0 .98-.002.9 1 .998 1 .786.004 2.966-.008 3.002 0v1l1 1v-1l1-1h1V8h-1l-1-1V6l-1 1v1H9V7s-1.066.09-1 0c.007-.01-1 1-1 1zm4-4v1l1 1V5l1-1h1V2h-1l-1-1V0l-1 1v1H8s.015.985-1 1c-.33.005 0 0 0 0v1H6v1H5v1H4v1H3L2 8H0v2h4s-.002.346 0 0c.005-1.005 1-1 1-1V8h1V7h1V6h1V5h1V4h2z"/></svg><svg width="32" height="30" viewBox="-10 -10 32 30" id="track-next" y="103"><path fill-rule="evenodd" fill="#52636a" d="M.1.01C.17-.018.25.01.35.093l5.525 4.613c.042.035.076.076.102.124V.218c0-.113.033-.182.1-.208.068-.027.15 0 .25.084l5.525 4.613c.1.083.148.18.148.293 0 .112-.05.21-.148.292L6.327 9.906c-.1.082-.182.11-.25.085-.067-.025-.1-.095-.1-.207V5.17c-.026.042-.06.083-.102.122L.35 9.906c-.1.083-.182.11-.25.085-.067-.025-.1-.095-.1-.207V.217C0 .105.033.035.1.01z"/></svg><svg width="32" height="30" viewBox="-10 -10 32 30" id="track-prev" x="32" y="103"><path fill-rule="evenodd" fill="#52636a" d="M11.9.01c-.068-.027-.15 0-.25.084L6.124 4.707c-.04.035-.075.076-.1.124V.218c0-.113-.034-.182-.102-.208-.067-.027-.15 0-.25.084L.15 4.707C.048 4.79 0 4.887 0 5c0 .112.05.21.148.292l5.525 4.614c.1.082.182.11.25.085.067-.025.1-.095.1-.207V5.17c.026.042.06.083.1.122l5.527 4.614c.1.083.182.11.25.085.067-.025.1-.095.1-.207V.217c0-.112-.033-.182-.1-.208z"/></svg><svg width="38" height="31" viewBox="-10 -10 38 31" id="track-repeat"><path fill-rule="evenodd" fill="#52636a" d="M17.163 7l-3.167 3.577L10.828 7H13V3H8L6 1h9v6h2.163zM5 4v4h5l2 2H3V4H.828L3.996.423 7.163 4H5z"/></svg><svg width="33" height="30" viewBox="-10 -10 33 30" id="translate-vk" x="111" y="66"><path fill-rule="evenodd" fill="#52636a" d="M1 3L0 4v2l1 1V3zm11-3v10h1V0h-1zm-1 0v10h-1L9 9H8L7 8 4 7v3H3V9c.028-.075.055.003 0 0-.49-.03-1-2-1-2V3h1l3-1h1l1-1h1l1-1h1z"/></svg><svg width="32" height="29" viewBox="-10 -10 32 29" id="volume-max" x="64" y="103"><path fill-rule="evenodd" fill="#52636a" d="M0 2v5h4v1h1v1h1V0H5v1H4v1H0zm7-1v2h1v3H7v2l1-1 1-1V3L8 2 7 1zm2-1v2h1v5H9v2l1-1 1-1 1-3-1 1h1l-1-3-1-1-1-1z"/></svg><svg width="33" height="29" viewBox="-10 -10 33 29" id="volume-min" x="75" y="36"><path fill-rule="evenodd" fill="#52636a" d="M0 2v5h4v1h1v1h1V0H5v1H4v1H0zm7 0h1s-.003-.346 0 0c.005.536 1 1 1 1s.077 1.226 0 1c-.02-.063 1-1 1-1 .028.275 1.542-1.012 1.03-1H12s.01 1.07 0 1c-.046-.292-1 .69-1.033.975L11 4s-.994-.02-1 0c-.03.104 1 1 1 1s.21.967 1 1c.113.005 0 1 0 1s-.977.062-.992-.125C10.968 6.372 10 6 10 6L9 5s.202 0 0 0c-.034 0 0 1 0 1s-1 .307-1 1c0 .11.064-.04 0 0 0 0-1.013-.012-1 0 .032.03.04-.976 0-1 0 0 1-.438 1-1 0-.295 0 0 0 0s.793-.817 1-1c.03-.028-1 0-1 0s-.3-1.024-1-.97C6.863 3.043 7 2 7 2z"/></svg><svg width="30" height="30" viewBox="-10 -10 30 30" id="window-close" x="145" y="32"><path fill-rule="evenodd" fill="#52636a" d="M1 0L0 1v1h1v1h1v1h1v2H2v1H1v1H0v1l1 1h1V9h1V8h1V7h2v1h1v1h1v1h1l1-1V8H9V7H8V6H7V4h1V3h1V2h1V1L9 0H8v1H7v1H6v1H4V2H3V1H2V0H1z"/></svg><svg width="32" height="22" viewBox="-10 -10 32 22" id="window-collapse" x="96" y="103"><path fill-rule="evenodd" fill="#52636a" d="M0 0h12v2H0V0z"/></svg><svg width="32" height="30" viewBox="-10 -10 32 30" id="window-expand" y="133"><path fill-rule="evenodd" fill="#52636a" d="M0 0v10h12V0H0zm11 2H1v7h10V2z"/></svg></svg>