<?xml version="1.0" encoding="utf-8"?><svg width="288" height="138" viewBox="0 0 288 138" xmlns="http://www.w3.org/2000/svg" xmlns:xlink="http://www.w3.org/1999/xlink"><svg width="154" height="138" viewBox="-10 -10 154 138" id="love"><path fill-rule="evenodd" d="M66.97 25.788C49.622-15.132.316-5.585-.008 41.91c-.18 26.085 23.478 35.836 39.23 46.264 15.274 10.113 26.145 23.948 27.848 29.837 1.46-5.77 13.568-19.995 27.707-30.12 15.46-11.068 39.41-20.178 39.23-46.263-.326-47.613-50.49-55.128-67.038-15.84z"/></svg><svg width="134" height="132" viewBox="-10 -10 134 132" id="volume" x="154"><path fill-rule="evenodd" d="M98.453 88.833c-.604.483-1.328.717-2.048.717-.964 0-1.92-.422-2.568-1.233-1.132-1.415-.9-3.48.517-4.61 8.305-6.628 13.068-16.5 13.068-27.088 0-10.66-4.816-20.575-13.213-27.2-1.425-1.122-1.667-3.185-.543-4.606 1.125-1.422 3.188-1.665 4.612-.542 9.985 7.876 15.71 19.667 15.71 32.347 0 12.59-5.663 24.333-15.537 32.213zM86.18 75.985c-.57.396-1.223.587-1.87.587-1.04 0-2.062-.492-2.7-1.41-1.035-1.486-.667-3.53.823-4.564 4.59-3.186 7.33-8.413 7.33-13.98 0-5.51-2.697-10.707-7.218-13.898-1.48-1.046-1.833-3.092-.786-4.572 1.045-1.48 3.094-1.83 4.577-.786 6.258 4.42 9.994 11.618 9.994 19.257 0 7.714-3.794 14.953-10.15 19.365zm-12.145 35.7c-.41.215-.858.32-1.303.32-.565 0-1.13-.17-1.61-.505L23.46 78.306H8.993C4.04 78.306.01 74.28.01 69.334V42.666c0-4.95 4.03-8.974 8.983-8.974H23.46L71.123.5c.86-.6 1.98-.672 2.912-.186.93.484 1.51 1.445 1.51 2.492v106.388c0 1.047-.58 2.008-1.51 2.492z"/></svg></svg>