<svg 
 xmlns="http://www.w3.org/2000/svg"
 xmlns:xlink="http://www.w3.org/1999/xlink"
 width="16px" height="16px">
<path fill-rule="evenodd"  fill="rgb(255, 255, 255)"
 d="M16.000,8.000 C16.000,8.000 -0.000,8.000 -0.000,8.000 C-0.000,8.000 -0.000,7.000 -0.000,7.000 C-0.000,7.000 8.000,0.000 8.000,0.000 C8.000,0.000 11.000,2.625 11.000,2.625 C11.000,2.625 11.000,1.000 11.000,1.000 C11.000,1.000 13.000,1.000 13.000,1.000 C13.000,1.000 13.000,4.375 13.000,4.375 C13.000,4.375 16.000,7.000 16.000,7.000 C16.000,7.000 16.000,8.000 16.000,8.000 ZM15.000,16.000 C15.000,16.000 10.000,16.000 10.000,16.000 C10.000,16.000 10.000,12.000 10.000,12.000 C10.000,12.000 6.000,12.000 6.000,12.000 C6.000,12.000 6.000,16.000 6.000,16.000 C6.000,16.000 1.000,16.000 1.000,16.000 C1.000,16.000 1.000,9.000 1.000,9.000 C1.000,9.000 15.000,9.000 15.000,9.000 C15.000,9.000 15.000,16.000 15.000,16.000 Z"/>
</svg>