<svg 
 xmlns="http://www.w3.org/2000/svg"
 xmlns:xlink="http://www.w3.org/1999/xlink"
 width="16px" height="16px">
<path fill-rule="evenodd"  fill="rgb(255, 255, 255)"
 d="M15.415,6.835 C15.415,6.835 13.830,6.571 13.830,6.571 C13.715,6.100 13.547,5.649 13.328,5.229 C13.328,5.229 14.343,3.971 14.343,3.971 C14.558,3.706 14.549,3.323 14.321,3.066 C14.321,3.066 13.691,2.357 13.691,2.357 C13.462,2.101 13.083,2.046 12.794,2.229 C12.794,2.229 11.439,3.081 11.439,3.081 C10.843,2.664 10.167,2.357 9.439,2.178 C9.439,2.178 9.174,0.585 9.174,0.585 C9.118,0.248 8.826,-0.000 8.483,-0.000 C8.483,-0.000 7.533,-0.000 7.533,-0.000 C7.191,-0.000 6.898,0.248 6.844,0.585 C6.844,0.585 6.577,2.179 6.577,2.179 C5.975,2.326 5.410,2.564 4.895,2.878 C4.895,2.878 3.606,1.958 3.606,1.958 C3.328,1.759 2.946,1.791 2.704,2.032 C2.704,2.032 2.033,2.704 2.033,2.704 C1.791,2.946 1.760,3.328 1.959,3.606 C1.959,3.606 2.881,4.897 2.881,4.897 C2.570,5.409 2.335,5.970 2.187,6.567 C2.187,6.567 0.585,6.835 0.585,6.835 C0.248,6.891 -0.000,7.183 -0.000,7.525 C-0.000,7.525 -0.000,8.475 -0.000,8.475 C-0.000,8.817 0.248,9.109 0.585,9.165 C0.585,9.165 2.187,9.433 2.187,9.433 C2.308,9.924 2.484,10.393 2.718,10.828 C2.718,10.828 1.708,12.079 1.708,12.079 C1.493,12.345 1.502,12.727 1.729,12.984 C1.729,12.984 2.359,13.693 2.359,13.693 C2.588,13.950 2.967,14.003 3.256,13.821 C3.256,13.821 4.631,12.957 4.631,12.957 C5.213,13.355 5.871,13.648 6.577,13.821 C6.577,13.821 6.844,15.415 6.844,15.415 C6.898,15.752 7.191,16.000 7.533,16.000 C7.533,16.000 8.483,16.000 8.483,16.000 C8.826,16.000 9.118,15.752 9.174,15.415 C9.174,15.415 9.439,13.821 9.439,13.821 C10.034,13.676 10.591,13.442 11.102,13.134 C11.102,13.134 12.445,14.093 12.445,14.093 C12.722,14.292 13.104,14.261 13.346,14.018 C13.346,14.018 14.018,13.347 14.018,13.347 C14.259,13.105 14.292,12.724 14.092,12.445 C14.092,12.445 13.135,11.105 13.135,11.105 C13.447,10.592 13.684,10.029 13.830,9.430 C13.830,9.430 15.415,9.165 15.415,9.165 C15.753,9.109 16.000,8.817 16.000,8.475 C16.000,8.475 16.000,7.525 16.000,7.525 C16.000,7.183 15.753,6.891 15.415,6.835 ZM8.025,11.000 C6.369,11.000 5.025,9.656 5.025,8.000 C5.025,6.343 6.369,5.000 8.025,5.000 C9.681,5.000 11.025,6.343 11.025,8.000 C11.025,9.656 9.681,11.000 8.025,11.000 Z"/>
</svg>