<svg 
 xmlns="http://www.w3.org/2000/svg"
 xmlns:xlink="http://www.w3.org/1999/xlink"
 width="16px" height="16px">
<path fill-rule="evenodd"  fill="rgb(255, 255, 255)"
 d="M15.686,14.296 C16.082,14.693 16.092,15.327 15.709,15.712 C15.325,16.097 14.694,16.086 14.298,15.689 C14.298,15.689 11.293,12.679 11.293,12.679 C11.261,12.646 11.247,12.605 11.220,12.570 C10.045,13.462 8.596,14.012 7.006,14.012 C3.137,14.012 0.000,10.875 0.000,7.006 C0.000,3.137 3.137,-0.000 7.006,-0.000 C10.875,-0.000 14.012,3.137 14.012,7.006 C14.012,8.593 13.464,10.039 12.575,11.214 C12.609,11.240 12.650,11.254 12.681,11.285 C12.681,11.285 15.686,14.296 15.686,14.296 ZM6.990,1.994 C4.231,1.994 1.994,4.231 1.994,6.990 C1.994,9.750 4.231,11.987 6.990,11.987 C9.750,11.987 11.987,9.750 11.987,6.990 C11.987,4.231 9.750,1.994 6.990,1.994 Z"/>
</svg>