<svg 
 xmlns="http://www.w3.org/2000/svg"
 xmlns:xlink="http://www.w3.org/1999/xlink"
 width="16px" height="16px">
<path fill-rule="evenodd"  fill="rgb(255, 255, 255)"
 d="M16.000,1.000 C16.000,0.447 15.552,-0.000 15.000,-0.000 C15.000,-0.000 1.000,-0.000 1.000,-0.000 C0.448,-0.000 -0.000,0.447 -0.000,1.000 C-0.000,1.000 -0.000,15.000 -0.000,15.000 C-0.000,15.553 0.448,16.000 1.000,16.000 C1.000,16.000 15.000,16.000 15.000,16.000 C15.552,16.000 16.000,15.553 16.000,15.000 C16.000,15.000 16.000,1.000 16.000,1.000 ZM1.665,1.508 C1.665,1.779 1.445,2.000 1.171,2.000 C0.900,2.000 0.679,1.779 0.679,1.508 C0.679,1.508 0.679,1.506 0.679,1.506 C0.679,1.234 0.900,1.014 1.171,1.014 C1.445,1.014 1.665,1.234 1.665,1.506 C1.665,1.506 1.665,1.508 1.665,1.508 ZM13.000,13.000 C13.000,13.000 3.000,13.000 3.000,13.000 C3.000,13.000 3.000,12.000 3.000,12.000 C3.000,12.000 13.000,12.000 13.000,12.000 C13.000,12.000 13.000,13.000 13.000,13.000 ZM3.000,10.000 C3.000,10.000 3.000,6.000 3.000,6.000 C3.000,6.000 7.000,6.000 7.000,6.000 C7.000,6.000 7.000,10.000 7.000,10.000 C7.000,10.000 3.000,10.000 3.000,10.000 ZM13.000,10.000 C13.000,10.000 9.000,10.000 9.000,10.000 C9.000,10.000 9.000,9.000 9.000,9.000 C9.000,9.000 13.000,9.000 13.000,9.000 C13.000,9.000 13.000,10.000 13.000,10.000 ZM13.000,7.000 C13.000,7.000 9.000,7.000 9.000,7.000 C9.000,7.000 9.000,6.000 9.000,6.000 C9.000,6.000 13.000,6.000 13.000,6.000 C13.000,6.000 13.000,7.000 13.000,7.000 ZM14.165,2.000 C14.165,2.000 3.165,2.000 3.165,2.000 C2.890,2.000 2.665,1.777 2.665,1.500 C2.665,1.224 2.890,1.000 3.165,1.000 C3.165,1.000 14.165,1.000 14.165,1.000 C14.443,1.000 14.665,1.224 14.665,1.500 C14.665,1.777 14.443,2.000 14.165,2.000 Z"/>
</svg>