<svg 
 xmlns="http://www.w3.org/2000/svg"
 xmlns:xlink="http://www.w3.org/1999/xlink"
 width="14px" height="14px">
<path fill-rule="evenodd"  fill="rgb(255, 255, 255)"
 d="M-0.000,14.000 C-0.000,14.000 3.000,14.000 3.000,14.000 C3.000,14.000 3.000,6.000 3.000,6.000 C3.000,6.000 -0.000,6.000 -0.000,6.000 C-0.000,6.000 -0.000,14.000 -0.000,14.000 ZM14.000,6.000 C14.000,6.000 14.000,6.000 14.000,6.000 C14.000,6.000 9.000,6.000 9.000,6.000 C9.000,6.000 11.000,2.000 11.000,2.000 C11.000,2.000 11.000,-0.000 11.000,-0.000 C11.000,-0.000 9.000,-0.000 9.000,-0.000 C9.000,-0.000 6.000,5.000 6.000,5.000 C6.000,5.000 4.000,6.000 4.000,6.000 C4.000,6.000 4.000,13.000 4.000,13.000 C4.000,13.000 4.000,14.000 4.000,14.000 C4.000,14.000 11.000,14.000 11.000,14.000 C11.000,14.000 12.000,13.000 12.000,13.000 C12.000,13.000 13.000,11.000 13.000,11.000 C13.000,11.000 13.000,10.000 13.000,10.000 C13.000,10.000 14.000,8.000 14.000,8.000 C14.000,8.000 14.000,6.000 14.000,6.000 C14.000,6.070 14.000,6.000 14.000,6.000 Z"/>
</svg>