<svg 
 xmlns="http://www.w3.org/2000/svg"
 xmlns:xlink="http://www.w3.org/1999/xlink"
 width="16px" height="14px">
<path fill-rule="evenodd"  fill="rgb(255, 255, 255)"
 d="M1.000,-0.000 C1.000,-0.000 6.000,-0.000 6.000,-0.000 C6.552,-0.000 7.000,0.448 7.000,1.000 C7.000,1.000 7.130,1.917 8.000,2.000 C8.000,2.000 15.000,2.000 15.000,2.000 C15.552,2.000 16.000,2.432 16.000,2.984 C16.000,2.984 16.000,4.000 16.000,4.000 C16.000,4.000 -0.000,4.000 -0.000,4.000 C-0.000,4.000 -0.000,1.000 -0.000,1.000 C-0.000,0.448 0.448,-0.000 1.000,-0.000 ZM16.000,13.000 C16.000,13.552 15.552,14.000 15.000,14.000 C15.000,14.000 1.000,14.000 1.000,14.000 C0.448,14.000 -0.000,13.552 -0.000,13.000 C-0.000,13.000 -0.000,5.000 -0.000,5.000 C-0.000,5.000 16.000,5.000 16.000,5.000 C16.000,5.000 16.000,13.000 16.000,13.000 Z"/>
</svg>