<svg 
 xmlns="http://www.w3.org/2000/svg"
 xmlns:xlink="http://www.w3.org/1999/xlink"
 width="16px" height="16px">
<path fill-rule="evenodd"  fill="rgb(255, 255, 255)"
 d="M14.999,16.000 C14.999,16.000 0.999,16.000 0.999,16.000 C0.447,16.000 -0.000,15.553 -0.000,15.000 C-0.000,15.000 -0.000,2.000 -0.000,2.000 C-0.000,1.447 0.447,1.000 0.999,1.000 C0.999,1.000 2.000,1.000 2.000,1.000 C2.000,1.000 2.000,2.000 2.000,2.000 C2.000,2.553 2.447,3.000 2.999,3.000 C2.999,3.000 4.999,3.000 4.999,3.000 C5.552,3.000 6.000,2.553 6.000,2.000 C6.000,2.000 6.000,1.000 6.000,1.000 C6.000,1.000 10.000,1.000 10.000,1.000 C10.000,1.000 10.000,2.000 10.000,2.000 C10.000,2.553 10.447,3.000 10.999,3.000 C10.999,3.000 12.999,3.000 12.999,3.000 C13.552,3.000 14.000,2.553 14.000,2.000 C14.000,2.000 14.000,1.000 14.000,1.000 C14.000,1.000 14.999,1.000 14.999,1.000 C15.552,1.000 16.000,1.447 16.000,2.000 C16.000,2.000 16.000,15.000 16.000,15.000 C16.000,15.553 15.552,16.000 14.999,16.000 ZM4.999,7.000 C4.999,7.000 2.999,7.000 2.999,7.000 C2.999,7.000 2.999,9.000 2.999,9.000 C2.999,9.000 4.999,9.000 4.999,9.000 C4.999,9.000 4.999,7.000 4.999,7.000 ZM4.999,11.000 C4.999,11.000 2.999,11.000 2.999,11.000 C2.999,11.000 2.999,13.000 2.999,13.000 C2.999,13.000 4.999,13.000 4.999,13.000 C4.999,13.000 4.999,11.000 4.999,11.000 ZM8.999,7.000 C8.999,7.000 6.999,7.000 6.999,7.000 C6.999,7.000 6.999,9.000 6.999,9.000 C6.999,9.000 8.999,9.000 8.999,9.000 C8.999,9.000 8.999,7.000 8.999,7.000 ZM8.999,11.000 C8.999,11.000 6.999,11.000 6.999,11.000 C6.999,11.000 6.999,13.000 6.999,13.000 C6.999,13.000 8.999,13.000 8.999,13.000 C8.999,13.000 8.999,11.000 8.999,11.000 ZM12.999,7.000 C12.999,7.000 10.999,7.000 10.999,7.000 C10.999,7.000 10.999,9.000 10.999,9.000 C10.999,9.000 12.999,9.000 12.999,9.000 C12.999,9.000 12.999,7.000 12.999,7.000 ZM12.999,11.000 C12.999,11.000 10.999,11.000 10.999,11.000 C10.999,11.000 10.999,13.000 10.999,13.000 C10.999,13.000 12.999,13.000 12.999,13.000 C12.999,13.000 12.999,11.000 12.999,11.000 ZM10.999,-0.000 C10.999,-0.000 12.999,-0.000 12.999,-0.000 C12.999,-0.000 12.999,2.000 12.999,2.000 C12.999,2.000 10.999,2.000 10.999,2.000 C10.999,2.000 10.999,-0.000 10.999,-0.000 ZM2.999,-0.000 C2.999,-0.000 4.999,-0.000 4.999,-0.000 C4.999,-0.000 4.999,2.000 4.999,2.000 C4.999,2.000 2.999,2.000 2.999,2.000 C2.999,2.000 2.999,-0.000 2.999,-0.000 Z"/>
</svg>