<svg 
 xmlns="http://www.w3.org/2000/svg"
 xmlns:xlink="http://www.w3.org/1999/xlink"
 width="17px" height="10px">
<path fill-rule="evenodd"  fill="rgb(82, 99, 106)"
 d="M12.967,9.993 C15.659,9.993 17.000,9.049 17.000,7.160 C17.000,5.603 16.151,4.614 14.446,4.187 C14.446,4.187 13.177,3.907 13.177,3.907 C12.456,3.716 12.099,3.315 12.099,2.702 C12.099,1.993 12.549,1.640 13.443,1.640 C14.428,1.640 14.944,2.039 14.988,2.841 C14.988,2.841 16.934,2.629 16.934,2.629 C16.805,0.882 15.677,0.008 13.578,0.008 C11.289,0.008 10.148,1.001 10.148,2.987 C10.148,4.399 10.888,5.298 12.367,5.674 C12.367,5.674 13.713,5.956 13.713,5.956 C14.609,6.191 15.058,6.619 15.058,7.232 C15.058,7.985 14.361,8.366 12.969,8.366 C11.271,8.366 10.149,7.491 9.613,5.744 C9.613,5.744 8.936,3.689 8.936,3.689 C8.535,2.322 8.034,1.365 7.424,0.822 C6.824,0.285 5.875,0.007 4.570,0.007 C3.358,0.007 2.295,0.480 1.379,1.425 C0.460,2.370 -0.000,3.620 -0.000,5.177 C-0.000,6.637 0.434,7.808 1.310,8.681 C2.188,9.557 3.223,9.993 4.434,9.993 C5.645,9.993 6.607,9.688 7.323,9.074 C7.323,9.074 6.723,7.301 6.723,7.301 C6.095,7.964 5.351,8.296 4.502,8.296 C3.787,8.296 3.170,7.999 2.656,7.407 C2.141,6.819 1.879,6.050 1.879,5.106 C1.879,3.926 2.159,3.067 2.721,2.524 C3.284,1.981 3.918,1.711 4.635,1.711 C5.399,1.711 5.944,1.922 6.286,2.343 C6.622,2.770 6.921,3.433 7.190,4.328 C7.190,4.328 7.798,6.383 7.798,6.383 C8.515,8.788 10.240,9.993 12.967,9.993 "/>
</svg>