<svg 
 xmlns="http://www.w3.org/2000/svg"
 xmlns:xlink="http://www.w3.org/1999/xlink"
 width="14px" height="12px">
<path fill-rule="evenodd"  fill="rgb(82, 99, 106)"
 d="M-0.000,2.000 C-0.000,2.000 -0.000,4.000 -0.000,4.000 C-0.000,4.000 2.000,4.000 2.000,4.000 C2.000,4.000 3.000,5.000 3.000,5.000 C3.000,5.000 4.000,5.000 4.000,5.000 C4.000,5.000 5.000,4.479 5.000,3.969 C5.000,3.479 5.000,3.000 5.000,3.000 C5.000,3.000 5.000,3.000 5.000,3.000 C5.000,3.000 4.000,2.937 4.000,2.000 C4.000,1.646 4.000,2.000 4.000,2.000 C4.000,2.000 -0.000,2.000 -0.000,2.000 ZM7.000,8.000 C7.000,8.173 7.000,8.732 7.000,9.000 C7.000,9.193 7.000,9.000 7.000,9.000 C7.980,8.998 7.900,9.999 7.998,10.000 C8.784,10.004 10.964,9.992 11.000,10.000 C11.000,10.000 11.000,11.000 11.000,11.000 C11.000,11.000 12.000,12.000 12.000,12.000 C12.000,12.000 12.000,11.000 12.000,11.000 C12.000,11.000 12.000,11.000 12.000,11.000 C12.000,11.000 13.000,10.000 13.000,10.000 C13.000,10.000 14.000,10.000 14.000,10.000 C14.000,10.000 14.000,8.000 14.000,8.000 C14.000,8.000 13.000,8.000 13.000,8.000 C13.000,8.000 12.000,7.000 12.000,7.000 C12.000,7.000 12.000,7.000 12.000,7.000 C12.000,7.000 12.000,6.000 12.000,6.000 C12.000,6.000 11.000,7.000 11.000,7.000 C11.000,7.000 11.000,8.000 11.000,8.000 C11.000,8.000 9.000,8.000 9.000,8.000 C9.000,8.000 9.000,7.000 9.000,7.000 C9.000,7.000 7.934,7.091 8.000,7.000 C8.007,6.990 7.000,8.000 7.000,8.000 ZM11.000,4.000 C11.000,4.000 11.000,5.000 11.000,5.000 C11.000,5.000 12.000,6.000 12.000,6.000 C12.000,6.000 12.000,5.000 12.000,5.000 C12.000,5.000 12.000,5.000 12.000,5.000 C12.000,5.000 13.000,4.000 13.000,4.000 C13.000,4.000 14.000,4.000 14.000,4.000 C14.000,4.000 14.000,2.000 14.000,2.000 C14.000,2.000 13.000,2.000 13.000,2.000 C13.000,2.000 12.000,1.000 12.000,1.000 C12.000,1.000 12.000,1.000 12.000,1.000 C12.000,1.000 12.000,-0.000 12.000,-0.000 C12.000,-0.000 11.000,1.000 11.000,1.000 C11.000,1.000 11.000,2.000 11.000,2.000 C11.000,2.000 8.000,2.000 8.000,2.000 C8.000,2.000 8.015,2.985 7.000,3.000 C6.670,3.005 7.000,3.000 7.000,3.000 C7.000,3.000 7.000,3.000 7.000,3.000 C7.000,3.000 7.000,4.000 7.000,4.000 C7.000,4.000 6.000,4.000 6.000,4.000 C6.000,4.000 6.000,5.000 6.000,5.000 C6.000,5.000 5.000,5.000 5.000,5.000 C5.000,5.000 5.000,6.000 5.000,6.000 C5.000,6.000 4.000,6.000 4.000,6.000 C4.000,6.000 4.000,7.000 4.000,7.000 C4.000,7.000 3.000,7.000 3.000,7.000 C3.000,7.000 2.000,8.000 2.000,8.000 C2.000,8.000 -0.000,8.000 -0.000,8.000 C-0.000,8.000 -0.000,10.000 -0.000,10.000 C-0.000,10.000 4.000,10.000 4.000,10.000 C4.000,10.000 4.000,10.000 4.000,10.000 C4.000,10.000 3.998,10.346 4.000,10.000 C4.005,8.995 5.000,9.000 5.000,9.000 C5.000,9.000 5.000,8.000 5.000,8.000 C5.000,8.000 6.000,8.000 6.000,8.000 C6.000,8.000 6.000,7.000 6.000,7.000 C6.000,7.000 7.000,7.000 7.000,7.000 C7.000,7.000 7.000,6.000 7.000,6.000 C7.000,6.000 8.000,6.000 8.000,6.000 C8.000,6.000 8.000,5.000 8.000,5.000 C8.000,5.000 9.000,5.000 9.000,5.000 C9.000,5.000 9.000,4.000 9.000,4.000 C9.000,4.000 11.000,4.000 11.000,4.000 Z"/>
</svg>