<svg 
 xmlns="http://www.w3.org/2000/svg"
 xmlns:xlink="http://www.w3.org/1999/xlink"
 width="18px" height="11px">
<path fill-rule="evenodd"  fill="rgb(82, 99, 106)"
 d="M17.163,7.000 C17.163,7.000 13.996,10.577 13.996,10.577 C13.996,10.577 10.828,7.000 10.828,7.000 C10.828,7.000 12.412,7.000 12.412,7.000 C12.412,7.000 13.000,7.000 13.000,7.000 C13.000,7.000 13.000,3.000 13.000,3.000 C13.000,3.000 8.000,3.000 8.000,3.000 C8.000,3.000 6.000,1.000 6.000,1.000 C6.000,1.000 13.000,1.000 13.000,1.000 C13.000,1.000 15.000,1.000 15.000,1.000 C15.000,1.000 15.000,3.000 15.000,3.000 C15.000,3.000 15.000,7.000 15.000,7.000 C15.000,7.000 17.163,7.000 17.163,7.000 ZM5.000,4.000 C5.000,4.000 5.000,8.000 5.000,8.000 C5.000,8.000 10.000,8.000 10.000,8.000 C10.000,8.000 12.000,10.000 12.000,10.000 C12.000,10.000 5.000,10.000 5.000,10.000 C5.000,10.000 3.000,10.000 3.000,10.000 C3.000,10.000 3.000,8.000 3.000,8.000 C3.000,8.000 3.000,4.000 3.000,4.000 C3.000,4.000 2.412,4.000 2.412,4.000 C2.412,4.000 0.828,4.000 0.828,4.000 C0.828,4.000 3.996,0.423 3.996,0.423 C3.996,0.423 7.163,4.000 7.163,4.000 C7.163,4.000 5.000,4.000 5.000,4.000 Z"/>
</svg>