<svg 
 xmlns="http://www.w3.org/2000/svg"
 xmlns:xlink="http://www.w3.org/1999/xlink"
 width="12px" height="10px">
<path fill-rule="evenodd"  fill="rgb(82, 99, 106)"
 d="M0.101,0.009 C0.168,-0.017 0.251,0.011 0.350,0.094 C0.350,0.094 5.875,4.707 5.875,4.707 C5.917,4.742 5.951,4.783 5.977,4.831 C5.977,4.831 5.977,0.217 5.977,0.217 C5.977,0.104 6.010,0.035 6.078,0.009 C6.145,-0.017 6.228,0.011 6.327,0.094 C6.327,0.094 11.852,4.707 11.852,4.707 C11.951,4.790 12.000,4.887 12.000,5.000 C12.000,5.112 11.951,5.210 11.852,5.292 C11.852,5.292 6.327,9.906 6.327,9.906 C6.228,9.988 6.145,10.017 6.078,9.991 C6.010,9.965 5.977,9.895 5.977,9.783 C5.977,9.783 5.977,5.169 5.977,5.169 C5.951,5.212 5.917,5.253 5.875,5.292 C5.875,5.292 0.350,9.906 0.350,9.906 C0.251,9.989 0.168,10.017 0.101,9.991 C0.033,9.965 -0.000,9.895 -0.000,9.783 C-0.000,9.783 -0.000,0.217 -0.000,0.217 C-0.000,0.105 0.033,0.035 0.101,0.009 Z"/>
</svg>