<svg 
 xmlns="http://www.w3.org/2000/svg"
 xmlns:xlink="http://www.w3.org/1999/xlink"
 width="12px" height="10px">
<path fill-rule="evenodd"  fill="rgb(82, 99, 106)"
 d="M11.899,0.009 C11.832,-0.017 11.749,0.011 11.650,0.094 C11.650,0.094 6.124,4.707 6.124,4.707 C6.083,4.742 6.049,4.783 6.023,4.831 C6.023,4.831 6.023,0.217 6.023,0.217 C6.023,0.104 5.990,0.035 5.922,0.009 C5.855,-0.017 5.772,0.011 5.673,0.094 C5.673,0.094 0.148,4.707 0.148,4.707 C0.049,4.790 -0.000,4.887 -0.000,5.000 C-0.000,5.112 0.049,5.210 0.148,5.292 C0.148,5.292 5.673,9.906 5.673,9.906 C5.772,9.988 5.855,10.017 5.922,9.991 C5.990,9.965 6.023,9.895 6.023,9.783 C6.023,9.783 6.023,5.169 6.023,5.169 C6.049,5.212 6.083,5.253 6.124,5.292 C6.124,5.292 11.650,9.906 11.650,9.906 C11.749,9.989 11.832,10.017 11.899,9.991 C11.967,9.965 12.000,9.895 12.000,9.783 C12.000,9.783 12.000,0.217 12.000,0.217 C12.000,0.105 11.967,0.035 11.899,0.009 Z"/>
</svg>