<svg 
 xmlns="http://www.w3.org/2000/svg"
 xmlns:xlink="http://www.w3.org/1999/xlink"
 width="13px" height="10px">
<path fill-rule="evenodd"  fill="rgb(82, 99, 106)"
 d="M1.000,3.000 C1.000,3.000 -0.000,4.000 -0.000,4.000 C-0.000,4.000 -0.000,6.000 -0.000,6.000 C-0.000,6.000 1.000,7.000 1.000,7.000 C1.000,7.000 1.000,7.000 1.000,7.000 C1.000,7.000 1.000,6.000 1.000,6.000 C1.000,6.000 1.000,4.000 1.000,4.000 C1.000,4.000 1.000,3.000 1.000,3.000 C1.000,3.000 1.000,3.000 1.000,3.000 ZM12.000,-0.000 C12.000,-0.000 12.000,1.000 12.000,1.000 C12.000,1.000 12.000,9.000 12.000,9.000 C12.000,9.000 12.000,10.000 12.000,10.000 C12.000,10.000 13.000,10.000 13.000,10.000 C13.000,10.000 13.000,9.000 13.000,9.000 C13.000,9.000 13.000,1.000 13.000,1.000 C13.000,1.000 13.000,-0.000 13.000,-0.000 C13.000,-0.000 12.000,-0.000 12.000,-0.000 ZM11.000,-0.000 C11.000,-0.000 11.000,1.000 11.000,1.000 C11.000,1.000 11.000,9.000 11.000,9.000 C11.000,9.000 11.000,10.000 11.000,10.000 C11.000,10.000 10.000,10.000 10.000,10.000 C10.000,10.000 9.000,9.000 9.000,9.000 C9.000,9.000 9.000,9.000 9.000,9.000 C9.000,9.000 8.000,9.000 8.000,9.000 C8.000,9.000 7.000,8.000 7.000,8.000 C7.000,8.000 7.000,8.000 7.000,8.000 C7.000,8.000 7.000,8.000 7.000,8.000 C7.000,8.000 4.000,7.000 4.000,7.000 C4.000,7.000 4.000,7.000 4.000,7.000 C4.000,7.000 4.000,8.000 4.000,8.000 C4.000,8.000 4.000,10.000 4.000,10.000 C4.000,10.000 3.000,10.000 3.000,10.000 C3.000,10.000 3.000,10.000 3.000,10.000 C3.000,10.000 3.000,9.000 3.000,9.000 C3.028,8.925 3.055,9.003 3.000,9.000 C2.511,8.971 2.000,7.000 2.000,7.000 C2.000,7.000 2.000,4.000 2.000,4.000 C2.000,4.000 2.000,3.000 2.000,3.000 C2.000,3.000 3.000,3.000 3.000,3.000 C3.000,3.000 3.000,3.000 3.000,3.000 C3.000,3.000 6.000,2.000 6.000,2.000 C6.000,2.000 6.000,2.000 6.000,2.000 C6.000,2.000 7.000,2.000 7.000,2.000 C7.000,2.000 7.000,2.000 7.000,2.000 C7.000,2.000 8.000,1.000 8.000,1.000 C8.000,1.000 9.000,1.000 9.000,1.000 C9.000,1.000 10.000,-0.000 10.000,-0.000 C10.000,-0.000 11.000,-0.000 11.000,-0.000 Z"/>
</svg>