<svg 
 xmlns="http://www.w3.org/2000/svg"
 xmlns:xlink="http://www.w3.org/1999/xlink"
 width="114px" height="112px">
<path fill-rule="evenodd"  fill="rgb(0, 0, 0)"
 d="M98.453,88.833 C97.849,89.316 97.125,89.550 96.405,89.550 C95.441,89.550 94.486,89.128 93.837,88.317 C92.705,86.902 92.937,84.837 94.354,83.707 C102.659,77.079 107.422,67.206 107.422,56.619 C107.422,45.959 102.606,36.045 94.209,29.421 C92.785,28.298 92.543,26.235 93.667,24.814 C94.792,23.392 96.855,23.149 98.279,24.272 C108.265,32.148 113.990,43.939 113.990,56.619 C113.990,69.211 108.327,80.953 98.453,88.833 ZM86.181,75.985 C85.609,76.381 84.957,76.572 84.310,76.572 C83.271,76.572 82.248,76.080 81.610,75.163 C80.575,73.676 80.943,71.631 82.433,70.598 C87.024,67.412 89.763,62.185 89.763,56.619 C89.763,51.107 87.066,45.911 82.545,42.720 C81.064,41.674 80.712,39.628 81.759,38.148 C82.805,36.669 84.854,36.317 86.337,37.362 C92.595,41.781 96.331,48.980 96.331,56.619 C96.331,64.334 92.536,71.573 86.181,75.985 ZM74.035,111.686 C73.624,111.900 73.177,112.005 72.732,112.005 C72.167,112.005 71.603,111.835 71.123,111.500 C71.123,111.500 23.460,78.306 23.460,78.306 C23.460,78.306 8.993,78.306 8.993,78.306 C4.040,78.306 0.010,74.281 0.010,69.334 C0.010,69.334 0.010,42.666 0.010,42.666 C0.010,37.717 4.040,33.692 8.993,33.692 C8.993,33.692 23.460,33.692 23.460,33.692 C23.460,33.692 71.123,0.500 71.123,0.500 C71.982,-0.099 73.104,-0.172 74.035,0.314 C74.964,0.798 75.546,1.759 75.546,2.806 C75.546,2.806 75.546,109.194 75.546,109.194 C75.546,110.241 74.964,111.202 74.035,111.686 Z"/>
</svg>