<svg 
 xmlns="http://www.w3.org/2000/svg"
 xmlns:xlink="http://www.w3.org/1999/xlink"
 width="12px" height="9px">
<path fill-rule="evenodd"  fill="rgb(82, 99, 106)"
 d="M-0.000,2.000 C-0.000,2.000 -0.000,7.000 -0.000,7.000 C-0.000,7.000 4.000,7.000 4.000,7.000 C4.000,7.000 4.000,8.000 4.000,8.000 C4.000,8.000 5.000,8.000 5.000,8.000 C5.000,8.000 5.000,9.000 5.000,9.000 C5.000,9.000 6.000,9.000 6.000,9.000 C6.000,9.000 6.000,-0.000 6.000,-0.000 C6.000,-0.000 5.000,-0.000 5.000,-0.000 C5.000,-0.000 5.000,1.000 5.000,1.000 C5.000,1.000 4.000,1.000 4.000,1.000 C4.000,1.000 4.000,2.000 4.000,2.000 C4.000,2.000 -0.000,2.000 -0.000,2.000 ZM7.000,1.000 C7.000,1.000 7.000,2.000 7.000,2.000 C7.000,2.000 7.000,3.000 7.000,3.000 C7.000,3.000 8.000,3.000 8.000,3.000 C8.000,3.000 8.000,4.000 8.000,4.000 C8.000,4.000 8.000,5.000 8.000,5.000 C8.000,5.000 8.000,6.000 8.000,6.000 C8.000,6.000 7.000,6.000 7.000,6.000 C7.000,6.000 7.000,7.000 7.000,7.000 C7.000,7.000 7.000,8.000 7.000,8.000 C7.000,8.000 7.000,8.000 7.000,8.000 C7.000,8.000 8.000,7.000 8.000,7.000 C8.000,7.000 9.000,6.000 9.000,6.000 C9.000,6.000 9.000,6.000 9.000,6.000 C9.000,6.000 9.000,5.000 9.000,5.000 C9.000,5.000 9.000,4.000 9.000,4.000 C9.000,4.000 9.000,3.000 9.000,3.000 C9.000,3.000 8.000,2.000 8.000,2.000 C8.000,2.000 8.000,2.000 8.000,2.000 C8.000,2.000 7.000,1.000 7.000,1.000 C7.000,1.000 7.000,1.000 7.000,1.000 ZM9.000,-0.000 C9.000,-0.000 9.000,1.000 9.000,1.000 C9.000,1.000 9.000,2.000 9.000,2.000 C9.000,2.000 10.000,2.000 10.000,2.000 C10.000,2.000 10.000,3.000 10.000,3.000 C10.000,3.000 10.000,4.000 10.000,4.000 C10.000,4.000 10.000,5.000 10.000,5.000 C10.000,5.000 10.000,6.000 10.000,6.000 C10.000,6.000 10.000,7.000 10.000,7.000 C10.000,7.000 9.000,7.000 9.000,7.000 C9.000,7.000 9.000,8.000 9.000,8.000 C9.000,8.000 9.000,9.000 9.000,9.000 C9.000,9.000 9.000,9.000 9.000,9.000 C9.000,9.000 10.000,8.000 10.000,8.000 C10.000,8.000 10.000,8.000 10.000,8.000 C10.000,8.000 11.000,7.000 11.000,7.000 C11.000,7.000 11.000,7.000 11.000,7.000 C11.000,7.000 11.000,7.000 11.000,7.000 C11.000,7.000 12.000,4.000 12.000,4.000 C12.000,4.000 11.000,5.000 11.000,5.000 C11.000,5.000 12.000,5.000 12.000,5.000 C12.000,5.000 11.000,2.000 11.000,2.000 C11.000,2.000 11.000,2.000 11.000,2.000 C11.000,2.000 10.000,1.000 10.000,1.000 C10.000,1.000 10.000,1.000 10.000,1.000 C10.000,1.000 9.000,-0.000 9.000,-0.000 C9.000,-0.000 9.000,-0.000 9.000,-0.000 Z"/>
</svg>