<svg 
 xmlns="http://www.w3.org/2000/svg"
 xmlns:xlink="http://www.w3.org/1999/xlink"
 width="10px" height="10px">
<path fill-rule="evenodd"  fill="rgb(82, 99, 106)"
 d="M1.000,-0.000 C1.000,-0.000 -0.000,1.000 -0.000,1.000 C-0.000,1.000 -0.000,2.000 -0.000,2.000 C-0.000,2.000 1.000,2.000 1.000,2.000 C1.000,2.000 1.000,3.000 1.000,3.000 C1.000,3.000 2.000,3.000 2.000,3.000 C2.000,3.000 2.000,4.000 2.000,4.000 C2.000,4.000 3.000,4.000 3.000,4.000 C3.000,4.000 3.000,6.000 3.000,6.000 C3.000,6.000 2.000,6.000 2.000,6.000 C2.000,6.000 2.000,7.000 2.000,7.000 C2.000,7.000 1.000,7.000 1.000,7.000 C1.000,7.000 1.000,8.000 1.000,8.000 C1.000,8.000 -0.000,8.000 -0.000,8.000 C-0.000,8.000 -0.000,9.000 -0.000,9.000 C-0.000,9.000 1.000,10.000 1.000,10.000 C1.000,10.000 2.000,10.000 2.000,10.000 C2.000,10.000 2.000,9.000 2.000,9.000 C2.000,9.000 3.000,9.000 3.000,9.000 C3.000,9.000 3.000,8.000 3.000,8.000 C3.000,8.000 4.000,8.000 4.000,8.000 C4.000,8.000 4.000,7.000 4.000,7.000 C4.000,7.000 6.000,7.000 6.000,7.000 C6.000,7.000 6.000,8.000 6.000,8.000 C6.000,8.000 7.000,8.000 7.000,8.000 C7.000,8.000 7.000,9.000 7.000,9.000 C7.000,9.000 8.000,9.000 8.000,9.000 C8.000,9.000 8.000,10.000 8.000,10.000 C8.000,10.000 9.000,10.000 9.000,10.000 C9.000,10.000 10.000,9.000 10.000,9.000 C10.000,9.000 10.000,8.000 10.000,8.000 C10.000,8.000 9.000,8.000 9.000,8.000 C9.000,8.000 9.000,7.000 9.000,7.000 C9.000,7.000 8.000,7.000 8.000,7.000 C8.000,7.000 8.000,6.000 8.000,6.000 C8.000,6.000 7.000,6.000 7.000,6.000 C7.000,6.000 7.000,4.000 7.000,4.000 C7.000,4.000 8.000,4.000 8.000,4.000 C8.000,4.000 8.000,3.000 8.000,3.000 C8.000,3.000 9.000,3.000 9.000,3.000 C9.000,3.000 9.000,2.000 9.000,2.000 C9.000,2.000 10.000,2.000 10.000,2.000 C10.000,2.000 10.000,1.000 10.000,1.000 C10.000,1.000 9.000,-0.000 9.000,-0.000 C9.000,-0.000 8.000,-0.000 8.000,-0.000 C8.000,-0.000 8.000,1.000 8.000,1.000 C8.000,1.000 7.000,1.000 7.000,1.000 C7.000,1.000 7.000,2.000 7.000,2.000 C7.000,2.000 6.000,2.000 6.000,2.000 C6.000,2.000 6.000,3.000 6.000,3.000 C6.000,3.000 4.000,3.000 4.000,3.000 C4.000,3.000 4.000,2.000 4.000,2.000 C4.000,2.000 3.000,2.000 3.000,2.000 C3.000,2.000 3.000,1.000 3.000,1.000 C3.000,1.000 2.000,1.000 2.000,1.000 C2.000,1.000 2.000,-0.000 2.000,-0.000 C2.000,-0.000 1.000,-0.000 1.000,-0.000 Z"/>
</svg>